Coordinates
nRows=11
nColumns=24

# SIMM Motion File Header:
name Coordinates
datacolumns 24
datarows 11
otherdata 1
range 1.18133000000000000000 1.19133000000000000000
endheader
time	pelvis_tx	pelvis_ty	pelvis_tz	pelvis_tilt	pelvis_list	pelvis_rotation	hip_flexion_r	hip_adduction_r	hip_rotation_r	knee_angle_r	ankle_angle_r	subtalar_angle_r	mtp_angle_r	hip_flexion_l	hip_adduction_l	hip_rotation_l	knee_angle_l	ankle_angle_l	subtalar_angle_l	mtp_angle_l	lumbar_extension	lumbar_bending	lumbar_rotation
      1.18133000000000000000	     -0.35922760952117261000	      0.79971895752088940000	      0.25031696883304777000	     -3.60937620473845830000	     -2.96303313517830120000	     -4.14046359577165910000	      9.57219924675415080000	      9.23468551982502460000	     -4.08698769743262600000	     -3.52475524652024100000	     -0.12033071662872760000	     -0.00000000000002653169	      0.00000000000035070106	     10.45871601325977800000	     -9.83738068006552520000	    -10.76598040538906200000	    -54.48461777132456500000	    -24.65438502775911200000	      0.00000000000014983523	      0.00000000000009322588	      3.71899643238986410000	      1.69518137638407910000	     -3.50148778407942980000
      1.18233000000000010000	     -0.35873848871553482000	      0.79976290748604517000	      0.25038805108977141000	     -3.60423412012571950000	     -2.94379444087244260000	     -4.17040847600232660000	      9.52041344986162310000	      9.22522494435067660000	     -4.12374472116720980000	     -3.51918692066778190000	     -0.09978876125437326200	     -0.00000000000002668289	      0.00000000000035211673	     10.59202689987561100000	     -9.84385872117159620000	    -10.73438937302196700000	    -54.60712312418369400000	    -24.37144668318455800000	      0.00000000000015006403	      0.00000000000009351109	      3.69447122605879220000	      1.67431031795297790000	     -3.45874517971130850000
      1.18333000000000000000	     -0.35824946026330429000	      0.79980676152667851000	      0.25045860012438048000	     -3.59915055021495080000	     -2.92445947401144180000	     -4.20025845473651490000	      9.46870724568797510000	      9.21560322394932290000	     -4.16061185462341320000	     -3.51352183707584810000	     -0.07996197489164140500	     -0.00000000000002682499	      0.00000000000035350722	     10.72514191376435900000	     -9.84982176767999820000	    -10.70243963113532700000	    -54.72843110345634400000	    -24.08194681084921700000	      0.00000000000015029533	      0.00000000000009377181	      3.67012734591893250000	      1.65335853874630680000	     -3.41615232339541920000
      1.18433000000000010000	     -0.35776056703701925000	      0.79985044187457544000	      0.25052810546496940000	     -3.59421755798301930000	     -2.90484022620542250000	     -4.22990663268484650000	      9.41722438186203450000	      9.20556564799547950000	     -4.19758176686895010000	     -3.50776379754055730000	     -0.06093478092443479300	     -0.00000000000002695291	      0.00000000000035485657	     10.85791102775569100000	     -9.85467958002939430000	    -10.66972860977604400000	    -54.84682071081657300000	    -23.78483550241968600000	      0.00000000000015053397	      0.00000000000009399783	      3.64620786327643830000	      1.63213251715528980000	     -3.37385361041092930000
      1.18533000000000000000	     -0.35727180903667993000	      0.79989394852973605000	      0.25059656711153799000	     -3.58943514342992740000	     -2.88493669745439220000	     -4.25935300984730780000	      9.36596485838382620000	      9.19511221648915010000	     -4.23465445790380280000	     -3.50191280206191190000	     -0.04270717935276365600	     -0.00000000000002706664	      0.00000000000035616481	     10.99033424184954400000	     -9.85843215821978090000	    -10.63625630894412700000	    -54.96229194626431500000	    -23.48011275789608700000	      0.00000000000015077995	      0.00000000000009418916	      3.62271277813132110000	      1.61063225317993570000	     -3.33184904075785710000
      1.18633000000000010000	     -0.35678305103634056000	      0.79993745518489656000	      0.25066502875810664000	     -3.58465272887683460000	     -2.86503316870335790000	     -4.28879938700977630000	      9.31470533490560370000	      9.18465878498281720000	     -4.27172714893866350000	     -3.49606180658326520000	     -0.02447957778108847100	     -0.00000000000002718037	      0.00000000000035747304	     11.12275745594342700000	     -9.86218473641016760000	    -10.60278400811220200000	    -55.07776318171207900000	    -23.17539001337241800000	      0.00000000000015102592	      0.00000000000009438049	      3.59921769298619850000	      1.58913198920457680000	     -3.28984447110477560000
      1.18733000000000000000	     -0.35629447587694324000	      0.79998051045256502000	      0.25073143489511596000	     -3.58034340863968040000	     -2.84434765963994400000	     -4.31786906519530780000	      9.26419264729904770000	      9.17317193758989370000	     -4.30879384859690440000	     -3.49037772726679350000	     -0.00554368885776228800	     -0.00000000000002730460	      0.00000000000035878968	     11.25458907342966700000	     -9.86349793029101640000	    -10.56775704512013700000	    -55.18605821960173300000	    -22.86516124331513900000	      0.00000000000015127836	      0.00000000000009454993	      3.57684788332137820000	      1.56684344337740060000	     -3.24837533010187050000
      1.18833000000000010000	     -0.35580590071754581000	      0.80002356572023348000	      0.25079784103212527000	     -3.57603408840252570000	     -2.82366215057652430000	     -4.34693874338084550000	      9.21367995969247920000	      9.16168509019696840000	     -4.34586054825515330000	     -3.48469364795032100000	      0.01339220006556904300	     -0.00000000000002742884	      0.00000000000036010632	     11.38642069091593500000	     -9.86481112417186350000	    -10.53273008212806300000	    -55.29435325749139500000	    -22.55493247325777900000	      0.00000000000015153079	      0.00000000000009471937	      3.55447807365655380000	      1.54455489755021810000	     -3.20690618909895700000
      1.18933000000000000000	     -0.35531733430691004000	      0.80006648035633232000	      0.25086326543368592000	     -3.57191381348721220000	     -2.80256657314898620000	     -4.37582083735652990000	      9.16350636562095740000	      9.14967203988683410000	     -4.38290195038683090000	     -3.47919717288501480000	      0.03382833190062121300	     -0.00000000000002756444	      0.00000000000036144034	     11.51786750115306100000	     -9.86491840888503190000	    -10.49696309244282400000	    -55.39865602650398600000	    -22.24584965963584800000	      0.00000000000015178933	      0.00000000000009487624	      3.53263384791743020000	      1.52184015202017900000	     -3.16568318470584890000
      1.19033000000000010000	     -0.35482877664503570000	      0.80010925436086144000	      0.25092770809979792000	     -3.56798258389373930000	     -2.78106092735731550000	     -4.40451534712237170000	      9.11367186508446280000	      9.13713278665948540000	     -4.41991805499195320000	     -3.47388830207087460000	      0.05576470664741661800	     -0.00000000000002771142	      0.00000000000036279174	     11.64892950414109800000	     -9.86381978443051290000	    -10.46045607606439600000	    -55.49896652663952100000	    -21.93791280244921500000	      0.00000000000015205398	      0.00000000000009502053	      3.51131520610400210000	      1.49869920678726890000	     -3.12470631692253020000
      1.19133000000000000000	     -0.35434021898316143000	      0.80015202836539057000	      0.25099215076590992000	     -3.56405135430026740000	     -2.75955528156565010000	     -4.43320985688820720000	      9.06383736454797710000	      9.12459353343213840000	     -4.45693415959706660000	     -3.46857943125673570000	      0.07770108139420714400	     -0.00000000000002785839	      0.00000000000036414314	     11.77999150712910700000	     -9.86272115997599560000	    -10.42394905968597700000	    -55.59927702677502700000	    -21.62997594526264700000	      0.00000000000015231863	      0.00000000000009516482	      3.48999656429057880000	      1.47555826155436390000	     -3.08372944913922040000
